<svg xmlns="http://www.w3.org/2000/svg" xmlns:xlink="http://www.w3.org/1999/xlink" width="56" height="56" viewBox="0 0 56 56">
  <defs>
    <clipPath id="clip-End-to-end-exam-management">
      <rect width="56" height="56"/>
    </clipPath>
  </defs>
  <g id="End-to-end-exam-management" clip-path="url(#clip-End-to-end-exam-management)">
    <rect id="Rectangle_11666" data-name="Rectangle 11666" width="56" height="56" rx="4" fill="#addfb3" opacity="0.301"/>
    <g id="pc" transform="translate(13 13)">
      <path id="Path_14235" data-name="Path 14235" d="M13.435,23.957V19M6,23.957H20.87" transform="translate(1.196 4.304)" fill="none" stroke="#00ac41" stroke-linecap="round" stroke-linejoin="round" stroke-miterlimit="10" stroke-width="2"/>
      <circle id="Ellipse_1026" data-name="Ellipse 1026" cx="1" cy="1" r="1" transform="translate(13.542 4.423)" fill="#00ac41"/>
      <path id="Path_14236" data-name="Path 14236" d="M25.783,23.3H3.478A2.478,2.478,0,0,1,1,20.826V3.478A2.478,2.478,0,0,1,3.478,1h22.3a2.478,2.478,0,0,1,2.478,2.478V20.826A2.478,2.478,0,0,1,25.783,23.3ZM1,18.348H28.261" transform="translate(0 0)" fill="none" stroke="#00ac41" stroke-linecap="round" stroke-linejoin="round" stroke-miterlimit="10" stroke-width="2"/>
    </g>
  </g>
</svg>
