<svg xmlns="http://www.w3.org/2000/svg" width="67" height="66" viewBox="0 0 67 66">
  <g id="Remote-proctoring" transform="translate(-98 -1431)">
    <ellipse id="Ellipse_997" data-name="Ellipse 997" cx="33.5" cy="33" rx="33.5" ry="33" transform="translate(98 1431)" fill="#f8b1d0" opacity="0.4"/>
    <g id="mpaas" transform="translate(121.17 1451)">
      <path id="Path_8863" data-name="Path 8863" d="M36.359,15.834A10.33,10.33,0,1,0,25.234,26.1v2.029l-5.164,2.951.8,1.357,4.366-2.521V32.5h1.595V29.914l4.369,2.525.8-1.353L26.83,28.135V26.1a10.369,10.369,0,0,0,9.53-10.268ZM28.427,7.411v5.225a3.924,3.924,0,1,1-6.271,3.136,3.82,3.82,0,0,1,1.6-3.136V7.411a9.837,9.837,0,0,1,2.4-.308,9.23,9.23,0,0,1,2.275.308ZM17.3,15.835a8.632,8.632,0,0,1,4.735-7.747v3.874a5.654,5.654,0,0,0-1.6,3.874,5.533,5.533,0,1,0,9.468-3.874V8.026a8.721,8.721,0,0,1-4,16.478A8.607,8.607,0,0,1,17.3,15.834Z" transform="translate(-15.7 -5.5)" fill="#ee3d8b"/>
      <path id="Path_8864" data-name="Path 8864" d="M28.6,20.8A2.4,2.4,0,1,0,31,18.4,2.4,2.4,0,0,0,28.6,20.8Zm3.2,0A.8.8,0,1,1,31,20a.775.775,0,0,1,.8.8Z" transform="translate(-20.668 -10.463)" fill="#ee3d8b"/>
      <path id="Path_8865" data-name="Path 8865" d="M31.2,13.2h1.6v1.6H31.2Z" transform="translate(-21.67 -8.461)" fill="#ee3d8b"/>
    </g>
  </g>
</svg>
